<svg xmlns="http://www.w3.org/2000/svg" viewBox="0 0 245 320" width="245" height="320">
	<style>
		tspan { white-space:pre }
		.shp0 { fill: #009fe3 } 
	</style>
	<g id="Layer">
		<path id="Layer" fill-rule="evenodd" class="shp0" d="M85.5 298.6C85.5 299.2 85.5 299.8 85.4 300.3L55 300.3C55.3 303.4 56.6 305.9 58.9 307.6C61.2 309.3 64.6 310.2 69 310.2C71.6 310.2 74 310 76.1 309.6C78.3 309.2 80 308.7 81.2 308.3L82.6 315.7C82 316 81.2 316.2 80.2 316.5C79.2 316.8 78 317.1 76.7 317.3C75.4 317.6 73.9 317.7 72.4 317.9C70.8 318 69.3 318.1 67.7 318.1C63.6 318.1 60.1 317.6 57.1 316.6C54.1 315.5 51.6 314.1 49.7 312.3C47.8 310.5 46.3 308.4 45.4 305.9C44.5 303.5 44 300.8 44 297.8C44 294.3 44.6 291.3 45.8 288.7C47 286.1 48.6 283.9 50.6 282.2C52.6 280.5 54.9 279.2 57.5 278.3C60 277.4 62.7 277 65.4 277C71.8 277 76.7 278.6 80.3 282C83.8 285.4 85.6 290.3 85.6 297C85.6 297.5 85.6 298.1 85.5 298.6ZM74.3 290C73.9 288.9 73.3 287.9 72.5 287.1C71.7 286.3 70.7 285.7 69.6 285.2C68.5 284.7 67.1 284.5 65.5 284.5C63.9 284.5 62.4 284.8 61.2 285.3C60 285.9 59 286.6 58.1 287.4C57.2 288.2 56.6 289.2 56.1 290.3C55.6 291.4 55.3 292.6 55.1 293.7L74.9 293.7C74.9 292.5 74.7 291.3 74.3 290Z" />
		<path id="Layer" class="shp0" d="M100.7 301.5L100.7 284.5L111.8 284.5L111.8 277L100.7 277L100.7 264L90 267L90 301.6C90 304.2 90.3 306.5 90.8 308.5C91.3 310.5 92.2 312.3 93.5 313.7C94.8 315.1 96.5 316.2 98.7 317C100.9 317.8 103.7 318.1 107 318.1C108.7 318.1 110.3 318 111.7 317.8L111.7 310.1C110.7 310.2 109.6 310.3 108.4 310.3C105.6 310.3 103.6 309.6 102.4 308.3C101.3 306.9 100.7 304.7 100.7 301.5Z" />
		<path id="Layer" class="shp0" d="M1 279.1L1 308.4L11.7 308.4L11.7 285.4C12.4 285.3 13.5 285.2 15 285C16.5 284.9 17.9 284.8 19.2 284.8C21 284.8 22.6 285 23.8 285.4C25.1 285.8 26.1 286.5 26.8 287.4C27.5 288.3 28.1 289.5 28.4 291C28.7 292.5 28.9 294.3 28.9 296.4L28.9 310.8C28.9 312.2 29.1 313.5 29.3 314.5C29.5 315.5 29.8 316.2 30.3 316.8C30.6 317.2 31.1 317.5 31.8 317.8C33.5 318.4 36.3 318.4 39.3 318.1C39.4 318.1 39.5 318.1 39.6 318.1L39.6 295C39.6 292.4 39.3 289.9 38.7 287.7C38.1 285.5 37 283.6 35.5 282C34 280.4 32 279.2 29.5 278.3C27 277.4 23.8 277 20.1 277C16.1 277 12.5 277.2 9.2 277.7C5.7 278.1 3.1 278.6 1 279.1Z" />
	</g>
	<g id="Layer">
		<path id="Layer" class="shp0" d="M106.1 264.1L106.1 271.6L117.2 271.6L117.2 317.8L128.4 317.8L128.4 271.6L139.6 271.6L139.6 264.1L106.1 264.1Z" />
	</g>
	<g id="Layer">
		<path id="Layer" class="shp0" d="M161.3 278.3C160.9 278.2 160.4 278.1 159.9 278C159 277.8 158.1 277.7 157.2 277.6C156.3 277.5 155.3 277.4 154.4 277.3C153.5 277.2 152.6 277.2 151.9 277.2C148.1 277.2 144.7 277.5 141.6 278.1C138.5 278.7 135.9 279.3 133.9 279.9L133.9 317.8L144.6 317.8L144.6 285.8C145.1 285.6 146.1 285.5 147.4 285.3C148.7 285.1 150 285 151.1 285C152.5 285 153.8 285.1 155 285.2C156.2 283.1 157.7 281.3 159.5 279.8C160 279.2 160.6 278.8 161.3 278.3Z" />
		<path id="Layer" fill-rule="evenodd" class="shp0" d="M197.6 298.6C197.6 299.2 197.6 299.8 197.5 300.3L167.1 300.3C167.4 303.4 168.7 305.9 171 307.6C173.3 309.3 176.7 310.2 181.1 310.2C183.7 310.2 186.1 310 188.2 309.6C190.4 309.2 192.1 308.7 193.3 308.3L194.7 315.7C194.1 316 193.3 316.2 192.3 316.5C191.3 316.8 190.1 317.1 188.8 317.3C187.5 317.6 186 317.7 184.5 317.9C182.9 318 181.4 318.1 179.8 318.1C175.7 318.1 172.2 317.6 169.2 316.6C166.2 315.5 163.7 314.1 161.8 312.3C159.9 310.5 158.4 308.4 157.5 305.9C156.6 303.5 156.1 300.8 156.1 297.8C156.1 294.3 156.7 291.3 157.9 288.7C159.1 286.1 160.7 283.9 162.7 282.2C164.7 280.5 167 279.2 169.6 278.3C172.1 277.4 174.8 277 177.5 277C183.9 277 188.8 278.6 192.4 282C195.9 285.4 197.7 290.3 197.7 297C197.7 297.5 197.7 298.1 197.6 298.6ZM186.4 290C186 288.9 185.4 287.9 184.6 287.1C183.8 286.3 182.8 285.7 181.7 285.2C180.6 284.7 179.2 284.5 177.6 284.5C176 284.5 174.5 284.8 173.3 285.3C172.1 285.9 171.1 286.6 170.2 287.4C169.3 288.2 168.7 289.2 168.2 290.3C167.7 291.4 167.4 292.6 167.2 293.7L187 293.7C187 292.5 186.8 291.3 186.4 290Z" />
		<path id="Layer" class="shp0" d="M212.8 276.9L202.1 279.9L202.1 317.2L212.8 317.2L212.8 299.2C214.4 300.2 216 301.4 217.7 302.8C219.3 304.2 221 305.7 222.6 307.3C224.2 308.9 225.7 310.6 227.1 312.2C228.5 313.9 229.7 315.5 230.8 317.1L243 317.1C241.9 315.4 240.6 313.6 239 311.6C237.4 309.6 235.7 307.6 233.9 305.6C232.1 303.6 230.2 301.7 228.3 299.9C226.4 298.1 224.5 296.6 222.8 295.4C226.1 292.5 229.4 289.6 232.6 286.6C235.9 283.6 239 280.7 241.9 277.9L229.3 277.9C228.4 278.9 227.2 280 225.9 281.2C224.6 282.5 223.2 283.8 221.7 285.2C220.2 286.6 218.7 287.9 217.2 289.3C215.7 290.7 214.2 292 212.9 293.2L212.9 276.9L212.8 276.9Z" />
		<path id="Layer" class="shp0" d="M114.1 172.3L88.3 189L120.2 239.3L127.7 180.6C122.3 179.4 117.5 176.4 114.1 172.3Z" />
		<path id="Layer" class="shp0" d="M20.1 79C19.8 79.3 19.5 79.6 19.2 79.9L85.5 184.6L111.2 167.9C109.3 164.4 108.3 160.4 108.3 156.2C108.3 151.8 109.4 147.7 111.4 144.1L20.1 79Z" />
	</g>
	<g id="Layer">
		<path id="Layer" class="shp0" d="M112.4 236.6L84 191.8L63.8 205L112.4 236.6Z" />
	</g>
	<g id="Layer">
		<path id="Layer" class="shp0" d="M130.7 2.4C130.7 5.7 129.7 8.8 128.1 11.5L223.5 78.1C226.7 74.8 231.1 72.6 236.1 72.6C237.1 72.6 238.2 72.7 239.2 72.9L242 24.4C242 24.4 242.5 15.3 233.5 14.1L130.7 0C130.7 0 130.5 0 130.4 0C130.6 0.8 130.7 1.6 130.7 2.4Z" />
		<path id="Layer" class="shp0" d="M124.7 15.4C122.5 17.3 119.9 18.7 117 19.3L133 131.2C133.1 131.2 133.2 131.2 133.3 131.2C141.3 131.2 148.4 135 153 140.8L220.3 97.1C219.3 94.9 218.7 92.5 218.7 89.9C218.7 87.1 219.4 84.5 220.6 82.2L124.7 15.4Z" />
		<path id="Layer" class="shp0" d="M236 107.3C230.8 107.3 226.3 105 223.1 101.4L155.7 145.2C157.4 148.6 158.3 152.3 158.3 156.3C158.3 160.9 157 165.2 154.8 169L193 196.3L225.6 175.1C225.6 175.1 233.2 170.2 233.7 161.1L236.8 107.3C236.7 107.2 236.4 107.3 236 107.3Z" />
		<path id="Layer" class="shp0" d="M151.9 173.1C147.3 178.2 140.7 181.4 133.4 181.4C133.2 181.4 133 181.4 132.8 181.4L125.4 239.6C126.7 239.3 128.1 238.7 129.4 237.8L188.6 199.3L151.9 173.1Z" />
		<path id="Layer" class="shp0" d="M111.9 19.6C106.8 19.2 102.4 16.6 99.5 12.7L23.4 61.2C24.2 63.2 24.6 65.3 24.6 67.5C24.6 70.1 24 72.6 22.9 74.8L114.3 140.1C117.8 136.1 122.5 133.1 127.9 131.9L111.9 19.6Z" />
		<path id="Layer" class="shp0" d="M81.3 187.5L15.1 82.9C12.8 84.1 10.1 84.8 7.3 84.8C6.5 84.8 5.8 84.7 5.1 84.6L9.5 161C9.5 161 10 170.1 17.6 175L59 201.9L81.3 187.5Z" />
		<path id="Layer" class="shp0" d="M7.3 50.1C12.8 50.1 17.7 52.7 20.8 56.7L97.1 8.2C96.4 6.4 96 4.5 96 2.4L96 2.3L10 14.1C10 14.1 1 15.3 1.5 24.4L3 50.7C4.4 50.4 5.8 50.1 7.3 50.1Z" />
	</g>
</svg>